<svg width="24" height="24" viewBox="0 0 24 24" fill="none" xmlns="http://www.w3.org/2000/svg">
    <path d="M5.28125 16.4313L6.80925 14.8183C7.34025 14.2553 8.22525 14.2283 8.78925 14.7583C8.80625 14.7753 9.72625 15.7103 9.72625 15.7103C10.2813 16.2753 11.1883 16.2843 11.7533 15.7303C11.7903 15.6943 14.0872 12.9083 14.0872 12.9083C14.6792 12.1893 15.7422 12.0863 16.4622 12.6793C16.5102 12.7193 18.6803 14.9463 18.6803 14.9463" stroke="#D1D1D1" stroke-width="1.5" stroke-linecap="round" stroke-linejoin="round"/>
    <path fill-rule="evenodd" clip-rule="evenodd" d="M10.3126 9.13291C10.3126 10.1019 9.52757 10.8869 8.55857 10.8869C7.58957 10.8869 6.80457 10.1019 6.80457 9.13291C6.80457 8.16391 7.58957 7.37891 8.55857 7.37891C9.52757 7.37991 10.3126 8.16391 10.3126 9.13291Z" stroke="#D1D1D1" stroke-width="1.5" stroke-linecap="round" stroke-linejoin="round"/>
    <path d="M9 22H15C20 22 22 20 22 15V9C22 4 20 2 15 2H9C4 2 2 4 2 9V15C2 20 4 22 9 22Z" stroke="#D1D1D1" stroke-width="1.5" stroke-linecap="round" stroke-linejoin="round"/>
</svg>
